<?xml version="1.0" standalone="no"?>
<!DOCTYPE svg PUBLIC "-//W3C//DTD SVG 20010904//EN"
 "http://www.w3.org/TR/2001/REC-SVG-20010904/DTD/svg10.dtd">
<svg version="1.0" xmlns="http://www.w3.org/2000/svg"
 width="24.000000pt" height="24.000000pt" viewBox="0 0 24.000000 24.000000"
 preserveAspectRatio="xMidYMid meet">

<g transform="translate(0.000000,24.000000) scale(0.100000,-0.100000)"
fill="#000000" stroke="none">
<path d="M68 197 c-54 -25 -58 -32 -25 -41 l22 -7 -22 -11 c-13 -6 -23 -14
-23 -18 0 -4 10 -11 23 -14 l22 -7 -22 -11 c-13 -6 -23 -14 -23 -17 0 -3 23
-16 50 -28 l50 -22 50 21 c56 23 60 30 28 45 l-23 10 23 7 c12 4 22 11 22 16
0 5 -10 12 -22 16 l-23 7 23 10 c12 6 22 13 22 17 0 7 -59 34 -95 45 -5 2 -31
-7 -57 -18z m87 -4 c19 -9 35 -20 35 -23 0 -3 -16 -14 -35 -23 -33 -16 -37
-16 -70 0 -19 9 -35 20 -35 23 0 5 51 35 67 39 1 1 18 -7 38 -16z m-54 -63
c13 -7 25 -7 38 0 19 10 51 4 51 -9 0 -4 -16 -15 -35 -24 -33 -16 -38 -16 -68
-1 -43 22 -44 24 -27 34 19 12 17 12 41 0z m0 -50 c13 -7 25 -7 38 0 19 10 51
4 51 -9 0 -4 -16 -15 -35 -24 -33 -16 -38 -16 -68 -1 -43 22 -44 24 -27 34 19
12 17 12 41 0z"/>
</g>
</svg>
